<svg width="120" height="64" viewBox="0 0 120 64" fill="none" xmlns="http://www.w3.org/2000/svg">
<g filter="url(#filter0_b)">
<path d="M0 0L110.932 0L120 54L0 64L0 0Z" fill="#5261AC"/>
</g>
<path d="M17.2246 20.3647C17.2981 20.227 17.3516 19.8828 17.3048 19.7244C17.2647 19.5661 17.0173 19.4559 16.9772 19.4491L16.9303 19.4422C16.8234 19.4491 16.5492 19.4697 16.3954 19.5317L16.3352 19.5592C16.2817 19.5799 16.2015 19.628 16.1212 19.6831V21.1082C16.3218 21.0118 16.5626 20.9154 16.6696 20.8672C16.8367 20.7984 17.1443 20.5023 17.2246 20.3647Z" fill="white"/>
<path d="M17.0574 22.9531L17.1243 22.9118L17.5322 22.5951L17.5857 22.5263L17.6057 22.485C17.6057 22.485 17.7261 22.2372 17.7261 21.9342C17.7261 21.6245 17.365 21.5143 17.365 21.5143L17.2914 21.5074C17.1978 21.5281 16.9972 21.6038 16.9303 21.6244C16.8635 21.6382 16.5291 21.7552 16.4088 21.8516L16.3151 21.9205L16.1212 22.0513V23.2354C16.3486 23.1872 16.6161 23.1321 16.6762 23.1115C16.7699 23.0839 16.9838 23.0082 17.0641 22.9531" fill="white"/>
<path d="M21.4575 32.0679L21.3037 30.9527C21.3037 30.9527 21.1967 30.5465 21.1298 30.5052L20.9626 30.457H20.8891L20.7553 30.5259L20.6149 30.6154L20.5815 30.6498L20.5614 30.6911C20.528 30.8563 20.4277 31.4759 20.4277 31.5585C20.4277 31.648 20.207 33.0868 20.207 33.0868L20.1334 34.7184L20.9626 34.7735L21.6179 34.8217L21.5377 33.4104L21.4575 32.0679Z" fill="white"/>
<path d="M24.587 36.8691L23.6909 36.5868C23.6909 36.5868 23.2897 36.9173 23.049 36.9999C22.8016 37.0756 21.3371 37.6745 21.2635 37.6539L21.1833 37.6608L20.8958 37.6883L19.759 37.826L19.6052 37.8329L19.4781 37.8191L18.3814 37.5231L18.3079 37.5024C18.0404 37.3647 16.9705 36.7865 16.8635 36.7039C16.7431 36.6006 16.9036 36.3528 16.9036 36.3528C16.9036 36.3528 16.81 36.1531 16.7899 36.0774C16.7699 35.9948 17.0307 35.9259 17.1911 35.7814C17.3449 35.6299 18.3413 35.0998 18.5018 35.0792C18.6623 35.0516 19.0167 34.8589 19.0167 34.8589V34.0603L19.0368 33.5784C19.0368 33.5784 19.1036 32.5939 19.1036 32.3874C19.1036 32.174 19.4514 30.3015 19.4514 30.3015L19.565 28.2155C19.5918 27.8025 19.0234 26.1365 19.0234 26.1365L18.7827 25.2002L18.7693 25.1107L18.7492 23.7752C18.7492 23.7752 18.3681 23.9679 18.1875 24.1194C18.0136 24.2846 17.3984 24.4085 17.3984 24.4085L16.1212 24.6977V40H25.3359V37.2684C25.1188 37.1401 24.898 37.0184 24.6739 36.9035L24.587 36.8691Z" fill="white"/>
<path d="M16.1212 16V17.9276C16.6321 17.7133 17.1546 17.5294 17.686 17.3769C17.7529 17.3493 18.5887 17.1979 18.7893 17.1703C18.99 17.1359 19.9395 17.0464 20.2137 17.2323C20.4945 17.4182 20.8623 17.8519 20.7754 18.2443C20.6951 18.6298 20.5748 18.9052 20.5748 18.9052L20.3474 19.4766L20.2003 19.7657L20.2739 19.8758C20.2739 19.8758 20.3006 19.8483 20.3875 19.807C20.4678 19.7726 20.7754 19.5729 20.8891 19.4903H20.8958C21.0161 19.4077 21.317 19.332 21.4708 19.2631C21.6246 19.1943 21.9657 19.1943 22.0459 19.2494C22.1262 19.3182 22.4672 19.5179 22.5073 19.5867C22.5408 19.6556 22.7681 19.6969 22.7681 19.6969L23.3432 19.7795L23.4301 19.8345C23.1982 19.9493 22.9592 20.0481 22.7146 20.1306C22.5809 20.1719 22.3468 20.3164 22.0459 20.5574C21.745 20.8052 21.0027 21.2458 20.9493 21.4248L20.8958 21.535C20.692 21.8356 20.4733 22.1251 20.2404 22.4024L20.0198 22.7259C19.8325 23.0495 19.6854 23.8412 19.672 23.91V24.564L19.779 25.2525L19.7857 25.3007L19.7991 25.342L20.0398 25.8652L20.0666 25.8927C20.2939 26.0304 20.2739 25.7619 20.2739 25.7619L20.1602 25.3488C20.1267 25.2318 20.0666 24.4952 20.0666 24.4952C20.0666 24.3644 20.1067 24.2061 20.1401 24.151C20.171 24.0933 20.2131 24.0428 20.2637 24.0026C20.3143 23.9623 20.3724 23.9332 20.4344 23.9169C20.4344 23.9169 20.6751 23.8481 20.9024 23.8756C21.0562 23.8963 21.21 23.9582 21.2569 24.1234C21.3037 24.2956 21.3304 24.6053 21.3438 24.6811V24.7224L21.2635 25.4246C21.2569 25.5347 21.297 25.7894 21.297 25.7894C21.297 25.7894 21.4708 25.8583 21.5043 25.7206L21.5711 25.2869L21.7183 24.0271L21.7985 22.9325C21.7985 22.9325 21.9122 22.1477 21.959 22.0513C22.0058 21.9618 22.2064 21.8585 22.3803 21.7966C22.6478 21.7002 22.8952 21.8654 22.962 21.9205L22.9821 21.9618L22.9152 22.2922L22.621 23.1321L22.5541 23.8412L22.5742 25.0666V25.8445L22.3 27.7721L22.1663 29.2178L22.3268 30.3468C22.3268 30.3468 22.6009 32.4396 22.5943 32.5154C22.5876 32.5842 22.6678 34.622 22.6678 34.622L22.7013 34.9318L23.1025 35.0488L23.8514 35.276L24.928 34.5531L25.3359 34.3053V16H16.1212Z" fill="white"/>
<path d="M56.6194 30.1342C56.2383 30.0268 55.2553 29.7449 54.2188 29.7449C51.6911 29.7449 50.6881 31.208 50.7014 32.4765C50.7415 35.8725 55.0079 34.9194 55.0346 37.1342C55.0413 37.8188 54.5465 38.6174 53.0686 38.6174C52.1325 38.6174 51.2966 38.3758 51.0023 38.2617L50.7616 39.5839C51.3634 39.8456 52.8212 40 53.403 40C56.0042 40 57.1945 38.4228 57.1745 36.7785C57.1343 33.396 52.8212 34 52.8012 32.2349C52.7878 31.5772 53.3227 31.1342 54.4528 31.1342C55.4492 31.1342 56.0912 31.3557 56.3386 31.4094L56.6194 30.1342Z" fill="white"/>
<path d="M45.1845 31.9866H44.8435C43.5796 31.9866 42.7371 32.7047 42.0617 34.1342V40H40.0021V30.3154C40.5504 30.2886 41.3194 30.1409 42.0617 30.0067V32.2953C42.6435 31.1946 43.4927 29.8792 45.004 29.8792C45.1377 29.8792 45.2982 29.8993 45.4721 29.9194L45.1845 31.9866Z" fill="white"/>
<path d="M64.791 40V33.443C64.791 31.9664 64.256 31.5302 63.3599 31.5302C62.4572 31.5302 61.5879 32.2013 60.7854 33.2886V40H58.7258V26.8658C59.2942 26.8255 60.1167 26.7315 60.7854 26.557V31.6711C61.7684 30.4295 62.8785 29.9195 64.042 29.9195C65.2189 29.9195 66.1417 30.4832 66.5563 31.4362C66.7904 31.9463 66.8506 32.4429 66.8506 33.4832V39.9933H64.791" fill="white"/>
<path d="M35.3212 39.9839V26.8497C35.9899 26.7825 36.8926 26.6416 37.5613 26.4V39.9839H35.3212Z" fill="white"/>
<path d="M47.8193 27.4457C47.6506 27.4591 47.481 27.4374 47.3211 27.382C47.1611 27.3267 47.0143 27.2388 46.8897 27.1239C46.7651 27.009 46.6655 26.8695 46.597 26.7142C46.5286 26.5589 46.4928 26.3911 46.4918 26.2213C46.4909 26.0515 46.5249 25.8833 46.5917 25.7273C46.6584 25.5713 46.7565 25.4307 46.8799 25.3145C47.0032 25.1982 47.1491 25.1087 47.3084 25.0516C47.4678 24.9945 47.6371 24.971 47.8059 24.9826C48.1159 25.0038 48.4064 25.1419 48.6191 25.3692C48.8318 25.5965 48.9509 25.8961 48.9526 26.2079C48.9543 26.5197 48.8384 26.8206 48.6282 27.0502C48.418 27.2798 48.129 27.4211 47.8193 27.4457Z" fill="white"/>
<path d="M46.6891 40V30.302L46.8897 30.2819C47.4915 30.2416 48.2004 30.1476 48.7487 29.9933V39.9933H46.6891" fill="white"/>
<path d="M72.1 40V26.8657C72.7687 26.7986 73.638 26.6308 74.3401 26.4161V38.4832H78.3925V40H72.1Z" fill="white"/>
<path d="M90.5025 26.8255C90.1825 26.7663 89.8583 26.7326 89.5329 26.7248C88.2624 26.7248 87.8478 27.4362 87.8478 29.557V30.2081H90.088L89.8873 31.4295H87.8478V40H85.7681V31.4295H84.1365L84.3371 30.2081H85.7681V29.4027C85.7681 26.7181 86.8046 25.5033 89.0849 25.5033C89.6734 25.5033 90.1281 25.5503 90.7567 25.6644L90.5025 26.8255Z" fill="white"/>
<path d="M81.0806 27.2631C80.9118 27.2756 80.7423 27.253 80.5826 27.1968C80.4229 27.1406 80.2765 27.0519 80.1526 26.9363C80.0286 26.8207 79.9297 26.6807 79.8621 26.5251C79.7944 26.3694 79.7595 26.2014 79.7595 26.0315C79.7595 25.8617 79.7944 25.6937 79.8621 25.538C79.9297 25.3823 80.0286 25.2423 80.1526 25.1267C80.2765 25.0111 80.4229 24.9225 80.5826 24.8663C80.7423 24.81 80.9118 24.7875 81.0806 24.8C81.406 24.8 81.7181 24.9297 81.9482 25.1607C82.1784 25.3917 82.3076 25.7049 82.3076 26.0315C82.3076 26.3582 82.1784 26.6714 81.9482 26.9024C81.7181 27.1333 81.406 27.2631 81.0806 27.2631Z" fill="white"/>
<path d="M80.1243 40V30.302L80.3249 30.2819C81.0604 30.2215 81.5285 30.1141 82.1839 29.9933V39.9933H80.1243" fill="white"/>
<path d="M95.2756 30.8389C96.3923 30.8389 97.0142 31.8859 97.061 33.8121H93.3163C93.3899 31.906 94.0786 30.8389 95.2756 30.8389ZM99.3213 35.0335C99.2945 31.5302 97.917 29.7181 95.2756 29.7181C92.6008 29.7181 91.036 31.5704 91.036 34.7181C91.036 38.1678 92.5807 40 95.5097 40C96.8069 40 97.7097 39.7584 99.0404 39.0939L98.6258 37.9731C97.8353 38.3499 96.9732 38.5514 96.0981 38.5637C94.2525 38.5637 93.3899 37.557 93.3096 35.2886V35.0335H99.3213Z" fill="white"/>
<defs>
<filter id="filter0_b" x="-100" y="-100" width="320" height="264" filterUnits="userSpaceOnUse" color-interpolation-filters="sRGB">
<feFlood flood-opacity="0" result="BackgroundImageFix"/>
<feGaussianBlur in="BackgroundImage" stdDeviation="50"/>
<feComposite in2="SourceAlpha" operator="in" result="effect1_backgroundBlur"/>
<feBlend mode="normal" in="SourceGraphic" in2="effect1_backgroundBlur" result="shape"/>
</filter>
</defs>
</svg>
